<svg width="20" height="20" viewBox="0 0 20 20" fill="none" xmlns="http://www.w3.org/2000/svg">
<path d="M7.79545 17.5C8.38306 18.0186 9.15493 18.3333 10.0003 18.3333C10.8457 18.3333 11.6175 18.0186 12.2052 17.5M15.0003 6.66663C15.0003 5.34054 14.4735 4.06877 13.5358 3.13109C12.5982 2.19341 11.3264 1.66663 10.0003 1.66663C8.67422 1.66663 7.40245 2.19341 6.46477 3.13109C5.52708 4.06877 5.0003 5.34054 5.0003 6.66663C5.0003 9.24178 4.35069 11.0049 3.62502 12.1711C3.01291 13.1549 2.70685 13.6467 2.71807 13.7839C2.7305 13.9359 2.76268 13.9938 2.88511 14.0846C2.99568 14.1666 3.49413 14.1666 4.49101 14.1666H15.5096C16.5065 14.1666 17.0049 14.1666 17.1155 14.0846C17.2379 13.9938 17.2701 13.9359 17.2825 13.7839C17.2938 13.6467 16.9877 13.1549 16.3756 12.1711C15.6499 11.0049 15.0003 9.24178 15.0003 6.66663Z" stroke="#667085" stroke-width="1.66667" stroke-linecap="round" stroke-linejoin="round"/>
</svg>
