<svg width="14" height="15" viewBox="0 0 14 15" fill="none" xmlns="http://www.w3.org/2000/svg">
<path d="M10.9998 6.96667C10.9998 6.04725 10.5784 5.16549 9.82824 4.51536C9.0781 3.86524 8.06068 3.5 6.99981 3.5C5.93895 3.5 4.92153 3.86524 4.17139 4.51536C3.42124 5.16549 2.99981 6.04725 2.99981 6.96667C2.99981 8.48787 2.62257 9.60039 2.15186 10.3965C1.61537 11.3037 1.34713 11.7574 1.35772 11.8658C1.36984 11.9897 1.39216 12.0289 1.49271 12.1024C1.58059 12.1667 2.02215 12.1667 2.90527 12.1667H11.0944C11.9775 12.1667 12.419 12.1667 12.5069 12.1024C12.6075 12.0289 12.6298 11.9897 12.6419 11.8658C12.6525 11.7574 12.3843 11.3037 11.8478 10.3965C11.3771 9.60039 10.9998 8.48787 10.9998 6.96667Z" fill="#667085"/>
<path d="M8.99981 12.1667C8.99981 13.2712 8.10438 14.1667 6.99981 14.1667C5.89524 14.1667 4.99981 13.2712 4.99981 12.1667M8.19748 3.65904C8.48781 3.35909 8.66648 2.95041 8.66648 2.5C8.66648 1.57953 7.92029 0.833334 6.99981 0.833334C6.07934 0.833334 5.33315 1.57953 5.33315 2.5C5.33315 2.95041 5.51182 3.35909 5.80214 3.65904M10.9998 6.96667C10.9998 6.04725 10.5784 5.16549 9.82824 4.51536C9.0781 3.86524 8.06068 3.5 6.99981 3.5C5.93895 3.5 4.92153 3.86524 4.17139 4.51536C3.42124 5.16549 2.99981 6.04725 2.99981 6.96667C2.99981 8.48787 2.62257 9.60039 2.15186 10.3965C1.61537 11.3037 1.34713 11.7574 1.35772 11.8658C1.36984 11.9897 1.39216 12.0289 1.49271 12.1024C1.58059 12.1667 2.02215 12.1667 2.90527 12.1667H11.0944C11.9775 12.1667 12.419 12.1667 12.5069 12.1024C12.6075 12.0289 12.6298 11.9897 12.6419 11.8658C12.6525 11.7574 12.3843 11.3037 11.8478 10.3965C11.3771 9.60039 10.9998 8.48787 10.9998 6.96667Z" stroke="#667085" stroke-linecap="round" stroke-linejoin="round"/>
</svg>
